<svg width="19" height="19" viewBox="0 0 19 19" fill="none" xmlns="http://www.w3.org/2000/svg">
<path d="M11.0267 13.3067C11.1988 13.3858 11.3927 13.4038 11.5764 13.3579C11.7602 13.3121 11.9228 13.2049 12.0375 13.0542L12.3334 12.6667C12.4886 12.4598 12.6899 12.2917 12.9213 12.176C13.1528 12.0603 13.4079 12.0001 13.6667 12.0001H16.1667C16.6087 12.0001 17.0326 12.1757 17.3452 12.4882C17.6578 12.8008 17.8334 13.2247 17.8334 13.6667V16.1667C17.8334 16.6088 17.6578 17.0327 17.3452 17.3453C17.0326 17.6578 16.6087 17.8334 16.1667 17.8334C12.1884 17.8334 8.37313 16.2531 5.56009 13.44C2.74704 10.627 1.16669 6.81166 1.16669 2.83341C1.16669 2.39139 1.34228 1.96746 1.65484 1.6549C1.9674 1.34234 2.39133 1.16675 2.83335 1.16675H5.33335C5.77538 1.16675 6.1993 1.34234 6.51186 1.6549C6.82443 1.96746 7.00002 2.39139 7.00002 2.83341V5.33341C7.00002 5.59216 6.93978 5.84734 6.82407 6.07877C6.70835 6.3102 6.54035 6.5115 6.33335 6.66675L5.94335 6.95925C5.79037 7.07606 5.68254 7.24224 5.63818 7.42954C5.59382 7.61684 5.61567 7.81373 5.70002 7.98675C6.83892 10.3 8.71204 12.1707 11.0267 13.3067Z" stroke="#F5AB00" stroke-width="1.66667" stroke-linecap="round" stroke-linejoin="round"/>
</svg>
